<svg xmlns="http://www.w3.org/2000/svg" xmlns:xlink="http://www.w3.org/1999/xlink" width="1985" height="1110" viewBox="0 0 1985 1110">
  <defs>
    <clipPath id="clip-path">
      <rect id="Rectangle_82" data-name="Rectangle 82" width="1985" height="1110" transform="translate(2636 -1993)" fill="#001874"/>
    </clipPath>
  </defs>
  <g id="Group_118" data-name="Group 118" transform="translate(-2636 1993)">
    <rect id="Rectangle_80" data-name="Rectangle 80" width="1985" height="1110" transform="translate(2636 -1993)" fill="#001874"/>
    <g id="Mask_Group_4" data-name="Mask Group 4" clip-path="url(#clip-path)">
      <g id="Group_108" data-name="Group 108" transform="translate(2535.186 -1989.324)" opacity="0.57">
        <path id="Path_655" data-name="Path 655" d="M-16.985,1235.111v-18.654a2563.481,2563.481,0,0,1,271.233-107.112c100.251-33.162,202.353-58.4,304.454-84.016,44.406-11.178,88.645-23.169,132.211-37.456,48.948-16.063,91.672-43.97,125.566-85.793,23.885-29.535,41.547-63.142,56.6-98.525,19.007-44.488,33.053-90.9,48.023-136.943,19.176-58.849,38.856-117.623,53.153-178.174,13.12-55.518,26.156-111.109,40.454-166.331,13.2-51,29.6-100.82,53.237-147.6,41.127-81.352,103.615-131.91,189.821-147.9,39.192-7.328,78.8-9.253,118.418-7.921,71.488,2.295,142.891,6.292,214.463,8.661,114.044,3.775,227.668-.962,340.45-21.541,14.718-2.665,29.268-6.144,43.9-9.253h90.916c-11.606,3.405-23.128,7.18-34.735,10.289-110.26,28.869-222.453,41.675-335.657,44.192-72.076,1.629-144.153.222-216.314-.074-53.069-.3-106.223-.962-159.039,6.07-40.874,5.478-80.4,15.841-117.072,36.642-47.939,27.241-83.515,67.879-110.848,117.105-25.063,45.006-43.061,93.492-56.938,143.531-15.054,54.555-27.67,109.925-43.4,164.258-22.708,78.539-46.93,156.485-70.9,234.58-13.12,42.638-28.427,84.461-49.032,123.841-29.689,56.628-71.908,98.451-128.846,122.361-20.185,8.439-40.874,16.211-61.984,21.171-62.657,14.879-125.65,28.277-188.56,42.193-123.8,27.315-245.666,62.18-364,109.7C79.566,1192.029,31.543,1214.162-16.985,1235.111Z" transform="translate(0.016 0)" fill="#041248"/>
        <path id="Path_656" data-name="Path 656" d="M18.1,1238.884c-10.765,0-21.53-.3-32.3.148-3.448.074-2.691-1.7-2.776-3.627,1.682-.592,3.448-.962,5.13-1.7a2063.307,2063.307,0,0,1,395.454-143.976c87.047-21.985,175.187-37.678,263.412-53.445,37.762-6.736,75.357-14.509,111.521-28.573,55.845-21.763,98.906-59.589,128.762-114.366A474.669,474.669,0,0,0,923.222,809.7c14.129-44.636,27.25-89.716,40.622-134.723q29.268-98.6,58.2-197.272c13.12-44.636,24.895-89.716,38.856-134.056,14.55-46.413,34.146-90.383,60.134-131.021,45.92-72.025,108.577-117.919,188.9-135.167,28.006-6,56.517-10.881,84.944-12.51,55.424-3.331,110.848-4.663,166.356-5.552,101.26-1.555,202.521-4.293,303.193-17.1C1939.19,32.82,2013.2,19.126,2085.615-3.229v24.5c-2.271.666-4.542,1.406-6.812,2.073-103.363,28.5-208.745,43.6-315.051,51.076-75.188,5.256-150.545,8.069-225.818,11.7-53.994,2.591-107.9,5.034-161.394,14.287-40.874,7.106-80.571,18.284-117.829,38.2-51.471,27.537-90.579,69.286-122.623,119.4-28.679,44.932-48.7,94.232-64.507,145.456-18.671,60.107-36.417,120.51-53.91,180.987-20.1,69.582-39.36,139.46-59.125,209.116-12.363,43.378-26.072,86.163-46.93,125.988-27,51.742-66.105,88.606-118.333,109.7-31.707,12.806-64.675,20.356-98.149,25.464-66.778,10.215-133.893,18.876-200.5,30.5Q250.4,1127.96,24.158,1235.257A55.974,55.974,0,0,0,18.1,1238.884Z" transform="translate(0 16.065)" fill="#041248"/>
        <path id="Path_657" data-name="Path 657" d="M23.293,1192.879H-16.152c1.934-1.11,3.7-2.443,5.635-3.331a1786.178,1786.178,0,0,1,209.081-79.575c129.771-40.417,262.655-62.254,397.136-74.393,38.772-3.553,77.459-7.476,115.39-17.173,30.361-7.773,59.377-19.1,85.449-37.826,33.81-24.28,57.106-57.812,74.6-96.378,17.746-39.232,30.277-80.464,39.949-122.583,28.511-123.693,66.778-244.2,104.54-364.787,16.737-53.371,37.426-104.965,67.367-151.822,29.689-46.487,65.432-86.311,111.437-115.032,35.323-21.985,73.506-35.827,113.287-45.154,57.611-13.472,116.231-17.914,174.935-22.059,83.01-5.922,166.1-10.955,249.03-17.84A1720.2,1720.2,0,0,0,1945.222,13.76c23.8-5.034,47.434-10.881,71.152-16.359V20.718c-1.43.37-2.776.888-4.205,1.258-108.241,26.13-218.248,39.751-328.676,49.744C1607.379,78.6,1531.1,84.6,1454.9,91.707c-47.687,4.441-94.868,12.214-141.209,25.612-59.713,17.173-113.287,45.969-158.114,92.159-42.724,44.044-74.263,96.3-97.307,154.191-34.987,87.94-62.909,178.544-88.224,269.963C954.905,688.187,944.056,744,931.02,799.149c-9.672,40.935-20.353,81.426-37.174,119.844C867.1,980.21,823.872,1020.627,762.561,1038.91c-34.651,10.363-70.142,14.953-105.886,17.543-46.089,3.257-92.177,5.33-138.182,9.253q-230.611,19.542-447.009,106.52C55.252,1178.741,39.356,1185.995,23.293,1192.879Z" transform="translate(69.241 62.07)" fill="#041248"/>
        <path id="Path_658" data-name="Path 658" d="M1939.5-1.985V21.258c-1.6.37-3.2.814-4.794,1.11C1854.39,38.8,1773.315,50.2,1691.986,59.6c-81.748,9.475-163.665,18.21-245.413,28.055-53.574,6.514-106.559,16.211-158.619,31.534q-171.7,50.3-253.151,218.517c-18.587,38.64-34.23,78.539-48.78,118.956-23.8,65.881-46.425,132.132-59.545,201.492-10.681,56.776-20.353,113.7-30.782,170.476-7.4,39.825-16.064,79.427-31.455,116.809-16.568,40.269-41.463,72.469-79.562,91.567-16.652,8.291-34.146,13.62-52.144,17.322-40.033,8.069-80.571,8.735-121.109,7.921-58.2-1.036-116.315-3.775-174.6-.962-138.1,6.662-272.158,35.235-402.434,84.239a36.428,36.428,0,0,0-4.71,2.517H-15.227a49.533,49.533,0,0,1,4.71-2.591c20.269-7.846,40.37-15.989,60.807-23.317a1417.247,1417.247,0,0,1,314.462-75.06c64.087-7.7,128.426-10.733,192.849-11.177,43.986-.3,87.972-1.7,131.453-10.289,29.689-5.848,58.031-15.545,83.515-33.385,32.464-22.8,53.742-55.3,68.965-92.751,15.643-38.566,24.81-79.131,33.473-119.844,11.354-53.593,21.7-107.482,33.894-160.853,15.643-68.842,39.613-134.871,62.321-201.27,14.3-41.823,30.529-82.758,50.8-121.842C1075.761,192.1,1155.744,124.6,1263.48,94.393,1311.167,81,1359.526,72.26,1408.39,67c88.056-9.475,176.2-17.766,264.253-27.093,73.254-7.772,146.172-17.914,218.5-32.2C1907.291,4.529,1923.355,1.2,1939.5-1.985Z" transform="translate(146.112 106.906)" fill="#041248"/>
        <path id="Path_659" data-name="Path 659" d="M1852.909-1.387V23.041c-1.6.148-3.28.074-4.878.3q-139.527,19.1-279.055,38.27c-68.544,9.475-137.173,18.506-205.549,29.313a751.12,751.12,0,0,0-149.115,39.232c-94.7,35.975-168.123,98.9-218.08,192.239C976.384,359.4,959.9,398.117,944.341,437.276,920.035,498.2,899.177,560.229,887.4,625.443c-10.6,58.034-17.157,116.587-23.549,175.213-4.794,44.414-9.167,88.828-18.419,132.5-5.046,23.539-11.186,46.561-20.858,68.546-18.335,41.453-48.78,66.1-90.748,74.394a281.915,281.915,0,0,1-44.575,4.96c-51.471,1.925-102.354-5.108-153.32-11.177-52.817-6.292-105.55-12.436-158.787-13.176a1108.28,1108.28,0,0,0-294.025,35.309c-14.3,3.7-28.427,8.217-42.556,12.362H-14.185a36.346,36.346,0,0,1,4.962-2.221c30.361-9.1,60.554-19.1,91.084-27.167,127.837-33.755,257.44-45.376,388.894-36.346,48.443,3.331,96.887,5.552,145.414,7.106a289.859,289.859,0,0,0,80.4-8.809c46.761-11.77,80.4-40.491,100.84-86.9a361.093,361.093,0,0,0,24.979-84.165q13.12-76.281,24.138-152.784c12.868-89.938,31.959-178.026,64.339-262.561,19.764-51.594,38.94-103.485,65.012-151.97,39.192-72.913,92.514-129.985,163.5-167.663,44.575-23.613,91.925-38.64,140.453-49.522,73.254-16.507,147.77-24.5,222.033-33.9q143.186-18.1,286.288-37.308C1809.848,7.274,1831.379,2.536,1852.909-1.387Z" transform="translate(232.706 150.574)" fill="#041248"/>
        <path id="Path_660" data-name="Path 660" d="M1205.121-3.449a20.921,20.921,0,0,1-2.944,1.406c-70.395,19.764-119.931,66.547-153.152,134.278-20.185,41.231-34.314,84.979-45.248,129.763q-22.96,92.936-43.145,186.613c-15.391,71.359-36.585,140.644-60.47,209.19-15.9,45.524-30.529,91.493-50.714,135.167-16.9,36.642-37.006,70.914-64.087,100.228-33.3,36.123-73.59,60.107-118.081,76.836-52.06,19.468-105.466,33.9-158.871,48.337-110.848,30.054-221.36,61.513-329.6,101.264-64.171,23.614-127.585,49.226-190.158,77.354-1.85.814-3.785,1.332-5.635,2v-18.654c1.514-.592,3.112-1.11,4.626-1.776,46.761-19.172,93.355-39.01,140.452-57.516,111.857-43.822,226.322-79.057,341.123-113.182,58.452-17.4,116.988-34.939,173.758-58.108,33.053-13.546,64.423-30.276,92.514-53.593,38.772-32.126,66.778-73.357,89.486-119.252,19.344-39.306,34.062-80.685,49.116-121.991C897.3,591.181,919,526.855,932.542,459.789c13.793-68.324,27.334-136.721,41.715-204.9,10.429-49.078,22.2-97.785,39.781-144.642,16.064-42.86,38.183-81.2,71.908-111.109a17.752,17.752,0,0,0,2.018-2.591Z" transform="translate(0.016 0)" fill="#041248"/>
        <path id="Path_661" data-name="Path 661" d="M-4.394,1059.538l8.747-6.81c13.457-10.437,23.128-24.132,30.782-39.677,13.877-28.425,21.194-59.219,24.979-90.679,5.719-48.263,10.261-96.823,14.3-145.308C79.457,715.7,84.671,654.482,94.764,593.783c11.522-69.952,34.314-135.907,61.227-200.529,15.811-38.048,32.8-75.43,53.49-110.739,48.443-82.832,116.819-139.09,201.848-173.733,52.9-21.541,107.652-35.975,163.413-45.08,71.572-11.7,143.4-21.615,215.22-31.608C871.206,20.842,952.534,10.479,1033.777-.329c1.85-.222,3.7-.3,5.467-.444V22.47c-1.6.3-3.2.666-4.878.888Q949.59,34.018,864.814,44.6C776.337,55.633,687.861,66.07,600.141,83.022c-57.19,11.029-113.54,25.316-167.87,47.745-81.917,33.829-149.62,86.9-197.643,166.183-42.64,70.47-74.431,146.492-97.728,226.364-19.007,64.845-26.577,132.058-30.529,199.641-3.7,65.067-5.719,130.281-9.083,195.422-2.439,47.745-6.308,95.342-20.605,141.163Z" transform="translate(1046.37 195.411)" fill="#041248"/>
        <path id="Path_662" data-name="Path 662" d="M970.809-3.449h53.658c-7.065,13.1-14.8,25.908-20.942,39.528-15.727,34.791-26.408,71.655-33.81,109.333q-21.7,110.258-41.463,220.96c-15.812,89.124-34.566,177.138-68.04,261.007-16.989,42.711-32.043,86.311-52.649,127.394-23.3,46.339-51.976,88.088-90.916,121.1-29.857,25.316-63.582,43.156-98.653,58.4-57.527,25.02-116.9,44.34-176.365,63.142C312.28,1038.5,183.349,1081.142,57.278,1132.81c-24.811,10.141-49.537,20.8-74.263,31.238V1144.21a59.713,59.713,0,0,0,6.224-1.925c49.032-19.468,97.56-40.269,147.1-58.182,101.345-36.716,203.109-71.877,304.79-107.556,56.433-19.838,112.446-40.935,167.029-66.473q121.613-56.961,181.663-182.468c14.214-29.905,27.165-60.551,39.781-91.345,21.951-53.667,41.631-108.074,53.826-165.368,16.484-77.354,27.333-155.671,39.276-233.84C934.981,156,944.064,74.276,970.809-3.449Z" transform="translate(0.016 0)" fill="#041248"/>
        <path id="Path_663" data-name="Path 663" d="M913.675-.159V23.084c-45.248,4.663-90.5,9.031-135.659,13.99-89.991,9.919-179.9,21.023-268.794,39.6-56.013,11.622-111.1,26.352-164.17,49-57.611,24.576-109.755,57.96-152.984,106-29.436,32.792-53.406,69.8-73.506,109.7C89.378,399.567,62.97,458.934,48.841,523.7,35.8,583.738,30.506,644.733,29.076,706.246c-1.85,81.2,2.523,162.259,6.812,243.315,1.177,21.689,1.85,43.378,2.775,65.141H-2.883c1.346-42.341,3.532-84.609,4.037-126.876.757-73.209-.841-146.418,3.7-219.553,3.616-57.812,10.092-115.254,24.726-171.29,18.082-69.064,46.593-133.538,79.646-195.644,32.968-61.81,76.282-113.626,133.051-151.97,47.1-31.83,98.485-53.149,151.975-69.138,76.618-22.873,155.087-35.975,233.891-46.339,82.589-10.955,165.347-20.356,248.021-30.35C888.612,2.062,901.144,1.025,913.675-.159Z" transform="translate(1171.939 240.247)" fill="#041248"/>
        <path id="Path_664" data-name="Path 664" d="M50.736,969.938H17.852c-3.869-38.048-8.074-76.022-11.438-114.07C-.988,771.112-5.361,686.207.442,601.154c4.037-57.738,12.111-114.662,30.7-169.366a835,835,0,0,1,69.3-150.342c34.482-59.219,78.973-107.926,135.322-143.976C280,109.12,327.688,89.282,377.057,74.033c84.187-26.056,170.562-40.417,257.356-51.15,57.443-7.106,115.053-12.51,172.664-18.432,17.578-1.777,35.239-2.665,52.9-4v24.5c-6.9.37-13.877.666-20.774,1.036C732.393,32.728,626,43.24,520.621,63.374c-63.75,12.14-126.407,28.2-186.794,53.519-59.209,24.872-112.951,58.775-157.61,107.852-33.053,36.271-58.536,78.169-81.244,122.287-34.482,66.917-58.115,137.535-66.189,213.78-6.9,65.437-6.981,130.947-2.859,196.532C30.551,828.7,39.55,899.468,50.736,969.938Z" transform="translate(1225.636 285.01)" fill="#041248"/>
        <path id="Path_665" data-name="Path 665" d="M894.107-3.449h37.258c-.168,1.7-.168,3.405-.5,5.108-6.392,40.195-13.709,80.241-19.176,120.584C900.162,208.11,889.733,294.2,878.631,380.214,863.072,500.8,821.441,611.834,767.026,717.909,738.768,772.983,701.342,819.987,651.8,855.148c-34.9,24.8-72.413,44.34-111.016,61.588-64,28.647-129.856,51.668-195.708,74.912-121.529,42.86-242.554,87.274-362.065,136.277v-19.838a59.068,59.068,0,0,0,6.224-1.776c45.416-17.618,90.748-35.605,136.247-52.853,100.251-37.826,200.755-74.912,300.922-113.034,54.078-20.578,106.979-44.562,157.526-73.949,66.273-38.492,120.016-90.679,158.03-160.335,12.279-22.429,23.381-45.672,34.651-68.768,42.472-87.274,68.292-179.951,80.992-277.218,10.008-77.206,17.157-154.635,23.549-232.137C884.771,84.121,889.733,40.373,894.107-3.449Z" transform="translate(0.016 0)" fill="#041248"/>
        <path id="Path_666" data-name="Path 666" d="M59.86,923.934H31.349c-3.448-19.1-7.149-38.122-10.261-57.22C6.79,779.144-2.966,691.13-1.536,602.006c.757-49.818,5.046-99.265,16.064-147.825,18.587-81.5,55.508-153.747,102.186-220.442,31.707-45.3,71.656-81.13,117.492-109.333,34.819-21.319,71.656-37.678,109.671-51C419.654,46.9,497.7,32.026,576.506,21,655.143,10.041,734.032,3.971,813.257,1.084V26.7c-99.831.888-199.073,9.179-297.473,27.093-61.4,11.178-121.866,26.352-180.4,49.744C281.977,124.851,232.1,152.758,189.126,193.1,125.208,253.134,83.156,329.082,52.374,412.284c-21.53,58.108-27.838,119.622-29.52,181.654C21.088,660.336,26.3,726.291,36.311,791.8,43.123,835.994,51.954,879.89,59.86,923.934Z" transform="translate(1272.357 331.015)" fill="#041248"/>
        <path id="Path_667" data-name="Path 667" d="M832.8-3.449h30.7c-.168,3.109-.168,6.218-.336,9.253-1.766,28.277-3.785,56.554-5.214,84.9-4.289,81.574-8.158,163.3-18.587,244.351-7.317,56.85-15.98,113.4-32.8,168.033-18.5,60.033-45.5,116.069-74.347,171.068-37.678,71.8-90.5,128.06-156.769,170.254-42.472,26.945-86.626,50.262-132.715,68.842-82.926,33.459-166.272,65.585-249.619,97.933-69.974,27.167-140.032,53.741-210.09,80.612v-19.838c19.933-7.4,40.033-14.509,59.882-22.207,106.9-41.453,213.959-82.462,320.518-124.8,57.106-22.725,112.867-48.856,165.852-81.278,54.247-33.236,103.027-73.283,142.471-125.544,28.847-38.27,50.63-80.982,71.992-124.211a679.254,679.254,0,0,0,61.984-190.092c13.877-82.536,20.437-165.812,22.792-249.533Q830.651,75.46,832.8-3.449Z" transform="translate(0.016 0)" fill="#041248"/>
        <path id="Path_668" data-name="Path 668" d="M63.959,875.83H38.728l-.673-2.221C20.562,794.331,6.264,714.459.966,633.108c-3.2-49.67-2.944-99.339,2.187-148.861C10.553,412.518,33.766,347.007,68,284.976,111.73,205.845,169.341,142.7,246.8,101.027,298.355,73.269,352.854,54.245,409.035,40.4,527.2,11.385,647.047.208,768.072,1.91v26.8a1225.281,1225.281,0,0,0-219.089,9.327c-73.843,9.7-146.424,25.612-216.818,52.186C233.007,127.528,152.856,190.374,97.432,286.752,72.453,330.13,50.25,374.692,38.476,424.51c-16.064,68.4-18.166,137.832-13.457,207.71,5.214,79.279,19.512,156.93,37.258,233.914C63.034,869.316,63.37,872.573,63.959,875.83Z" transform="translate(1317.542 379.118)" fill="#041248"/>
        <path id="Path_669" data-name="Path 669" d="M779.137-3.449h27.418c.084,1.925.42,3.849.42,5.774-.084,29.905-.252,59.811-.336,89.642-.168,75.948-1.43,151.9-10.008,227.4-5.8,51.52-13.793,102.6-27.586,152.488-12.531,45.45-33.389,86.829-53.658,128.579C668.625,696.813,601.763,772.76,513.875,827.908c-53.574,33.607-110.007,60.847-167.618,85.423-113.119,48.337-228.088,91.2-342.973,134.2-6.728,2.517-13.541,4.663-20.269,6.958v-19.764a70.355,70.355,0,0,0,6.813-1.851c68.628-25.908,137.425-51.3,205.717-77.947,74.011-28.943,147.517-59.441,218.416-96.3,53.658-27.833,104.793-59.885,150.629-100.968C619.509,708.434,661.393,648.4,696.38,582,727.5,522.931,751.3,461.27,762.653,394.353c9.5-55.962,16.4-112.219,17.241-169,1.093-70.988,0-142.051-.168-213.113C779.726,6.988,779.305,1.733,779.137-3.449Z" transform="translate(0.016 0)" fill="#041248"/>
        <path id="Path_670" data-name="Path 670" d="M723.093,5.97V35.061c-10.345-1.184-20.605-2.665-31.034-3.553-73.59-6.44-146.929-2.295-219.846,9.7-63.666,10.511-125.819,27.167-185.28,54.111C165.908,150.093,87.356,246.916,43.706,376.9c-18,53.593-21.11,110.147-20.017,166.7,1.346,73.135,12.279,144.938,27.586,216,4.878,22.725,10.6,45.228,15.9,67.805H41.94c-.5-2.665-1.009-5.33-1.6-7.995C33.025,784.992,25.035,750.645,18.559,716,4.346,639.388-3.728,562.182.561,483.865c3.7-68.324,18.419-133.316,50.126-193.645,31.034-59,68.292-112.368,118.922-154.191,44.827-37.012,95.121-62.7,148.779-81.352C438.067,13.15,561.194-1.211,686.592,3.157,698.787,3.6,710.9,5.007,723.093,5.97Z" transform="translate(1362.521 427.541)" fill="#041248"/>
        <path id="Path_671" data-name="Path 671" d="M534.872,60.289v44.266c-14.214-7.106-28.343-14.361-42.556-21.393C432.434,53.478,369.777,40.82,303.756,48.445,141.016,67.247,37.149,214.257,30.589,349.35a749.9,749.9,0,0,0,7.653,148.565c5.3,34.495,12.027,68.694,18.082,103.041H32.187c-4.542-23.169-9.335-46.339-13.625-69.582C7.8,472.377.227,413.084,1.909,352.755,5.189,227.952,57.67,130.833,155.23,64.8,258.845-5.37,370.618-10.774,484.831,35.491,501.988,42.449,518.22,52,534.872,60.289Z" transform="translate(1550.742 653.993)" fill="#041248"/>
        <path id="Path_672" data-name="Path 672" d="M631.866,25.629v39.6c-30.277-12.88-61.48-22.133-93.859-26.722C461.136,27.7,385.864,36.659,311.768,59.458Q136.287,113.2,57.02,288.412C35.489,336.084,27.667,386.938,26.07,439.2c-1.682,56.184,3.953,111.775,14.045,166.7,7.317,39.825,16.232,79.279,24.474,118.882H41.629c-3.869-16.211-7.822-32.348-11.438-48.633C14.3,604.789,1.932,532.838.67,459.258c-.925-49.226,1.766-98.3,16.989-145.012C53.908,203.36,119.592,118.307,219.507,66.564c99.41-51.594,205.464-68.694,315.3-61C567.947,7.864,600.243,15.044,631.866,25.629Z" transform="translate(1453.749 530.169)" fill="#041248"/>
        <path id="Path_673" data-name="Path 673" d="M584.545,43.215V86.371Q464.95,21.637,332.571,45.584C245.02,61.277,169.916,101.619,111.632,174.236c-45.584,56.85-75.525,121.4-82,196.9C25.594,418,27.613,464.63,33.079,511.117,39.3,563.6,49.816,615.194,61.086,666.64H38.126C21.641,595.726,7.176,524.367,2.634,451.232c-2.944-48.411-2.607-96.9,9-144.124,23.3-95.046,74.936-169.588,150.293-225.327,49.285-36.494,105.129-56.7,163.917-68.324C414.909-4.086,501.283,3.76,584.545,43.215Z" transform="translate(1501.069 588.309)" fill="#041248"/>
        <path id="Path_674" data-name="Path 674" d="M66.771,778.118H42.718c-6.055-26.8-12.447-53.519-18.082-80.389C9.665,625.7-.764,553.161-.007,479.137.5,424.212,5.965,369.879,25.9,318.8,72.406,199.4,149.529,111.463,263.4,62.163c58.284-25.242,118.922-40.935,181.159-50.04C513.7,1.982,583-.46,652.467,9.089l25.4,3.479V46.4c-10.513-2.369-21.026-5.108-31.623-7.032-60.05-10.881-120.268-10.659-180.57-3.479C397.045,44.1,330.435,60.535,267.105,90.44,159.705,141.146,87.629,227.384,45.83,342.934,28,392.086,24.047,444.124,24.3,496.533c.336,69.064,10.345,136.943,24.558,204.157C54.324,726.6,60.8,752.284,66.771,778.118Z" transform="translate(1407.749 476.831)" fill="#041248"/>
        <path id="Path_675" data-name="Path 675" d="M732.039-3.449h24.138q1.387,41.527,2.691,83.2c2.187,72.025,2.691,144.05-3.869,215.852a1069.965,1069.965,0,0,1-18,120.14c-12.363,59.589-37.594,113.108-66.105,165.442-50.714,92.9-118.249,168.033-204.624,223.847-41.715,27.018-85.2,50.262-129.771,71.211-91,42.859-184.355,79.279-278.3,114.144-24.894,9.253-50.126,17.914-75.189,26.87V997.421C49.457,972.55,116.151,948.64,182.088,922.51c73.927-29.165,146.34-62.254,215.977-101.93,97.98-55.814,179.14-131.1,238.6-231.767,23.381-39.677,46.257-79.649,61.564-123.841,22.456-64.919,31.623-132.65,36.164-201.27,3.869-58.923,2.859-117.993.841-176.99Q733.721,41.631,732.039-3.449Z" transform="translate(0.016 0)" fill="#041248"/>
        <path id="Path_676" data-name="Path 676" d="M49.608,524H24.377c-3.112-18.728-6.308-37.456-9.251-56.184C6.884,415.335.912,362.556,2.594,309.111c1.6-51.15,11.69-99.71,35.828-144.79C100.154,48.623,209.909-9.189,332.448,10.279c38.267,6,74.179,19.838,109.334,36.42,13.457,6.366,26.913,12.88,40.37,19.394v43.082c-19.848-8.957-39.444-18.284-59.461-26.722-34.146-14.435-69.133-26.2-105.97-29.831C234.131,44.4,163.148,70.386,106.042,135.23,57.85,189.934,33.629,255.3,31.862,330.282c-1.177,47.6,2.775,94.6,9.42,141.533C43.721,489.284,46.833,506.606,49.608,524Z" transform="translate(1603.463 730.948)" fill="#041248"/>
        <path id="Path_677" data-name="Path 677" d="M-16.985,978.768V957.819c1.934-.518,3.953-.814,5.8-1.48,38.94-13.842,78.132-26.945,116.736-41.675C186.041,883.944,264.761,849,340.538,806.589c107.82-60.4,196.549-142.865,261.646-253.308,31.707-53.667,59.461-109.11,72.665-171.66,10.092-47.893,15.727-96.379,17.914-145.308,2.859-64.919.336-129.689-2.775-194.459-.673-15.1-1.177-30.2-1.766-45.3h23.044c-.084,1.7-.336,3.479-.252,5.182,1.346,31.386,2.86,62.846,3.953,94.232,2.439,70.914,2.775,141.681-4.71,212.373-8.915,83.646-30.782,162.333-72.749,234.654C597.558,611.76,552.226,675.05,493.522,727.014,442.808,771.872,386.375,807.033,327.334,837.6c-87.215,45.228-177.71,81.8-269.383,115.328C33.141,962.038,7.994,970.181-16.985,978.768Z" transform="translate(0.016 0)" fill="#041248"/>
        <path id="Path_678" data-name="Path 678" d="M426.5,60.993v41.9c-3.448-1.184-6.9-2.443-10.345-3.7-35.071-13.25-70.142-26.574-106.727-34.421-38.1-8.291-76.366-10.881-114.381,0C124.57,84.9,79.406,135.09,51.82,204.672,37.439,240.8,34.747,279.51,34.411,318.372c-.336,40.269,3.28,80.241,7.737,120.14H15.824c-1.6-12.288-3.364-24.576-4.878-36.938C5.227,354.792,1.274,307.861,3.713,260.56,6.32,212,17.254,166.4,42.569,125.171,90.171,47.521,156.361,6.29,244.417,7.77c36.585.666,71.656,9.771,105.8,22.5C375.871,39.9,401.1,50.7,426.5,60.993Z" transform="translate(1659.114 816.437)" fill="#041248"/>
        <path id="Path_679" data-name="Path 679" d="M645.581-3.449h21.867c1.6,32.57,3.532,65.141,4.794,97.711,2.859,71.062,3.028,142.125-5.971,212.817-7.065,55.147-19.176,108.814-42.809,158.854a835.838,835.838,0,0,1-82.421,137.98C483.094,682.748,410.849,743.077,328.68,790.9,247.6,838.2,162.407,875.209,75.192,907.483c-30.445,11.252-61.4,21.171-92.177,31.682V917.032l4.205-1.332c110.007-34.051,216.314-77.651,317.238-135.759,110.932-63.882,200.334-151.97,266.019-266.854,26.072-45.6,48.864-92.751,61.059-145.012,14.634-62.624,20.605-126.358,19.932-190.536C650.88,117.209,647.6,56.88,645.581-3.449Z" transform="translate(0.016 0)" fill="#041248"/>
        <path id="Path_680" data-name="Path 680" d="M-16.985,897.194V872.766a66.005,66.005,0,0,0,6.9-1.184A1212.253,1212.253,0,0,0,259.042,758.326c113.792-65.067,205.044-155.375,272.663-272.7,34.735-60.255,60.134-123.989,69.722-194.459,7.99-57.812,10.261-115.921,8.663-174.251C609,76.792,606.725,36.672,605.043-3.449h20.774c.336,3.035.757,6.144.925,9.179,1.346,26.8,2.944,53.519,3.953,80.315,2.691,67.953,2.776,135.833-5.971,203.416-6.644,51.224-18.166,100.968-39.865,147.6C520.351,575.488,425.9,683.71,299.412,760.1c-82,49.522-168.627,87.718-258.281,118.437C21.871,885.128,2.359,890.976-16.985,897.194Z" transform="translate(0.016 0)" fill="#041248"/>
        <path id="Path_681" data-name="Path 681" d="M-16.985,851.743V826.131c.673-.222,1.346-.518,2.1-.74C64.343,806,139.447,775.055,211.524,735.156Q393.818,634.226,498.316,445.8c27.754-50.188,49.284-102.893,59.041-160.7,9.335-55.666,12.531-111.775,11.522-168.181-.673-40.121-2.86-80.241-4.373-120.362h21.951c-.084,2.295-.252,4.589-.168,6.884.757,15.175,1.6,30.276,2.271,45.376,3.028,68.768,4.373,137.387-3.364,205.933-5.635,49.966-15.307,98.969-35.576,144.79-51.051,114.81-123.632,211.115-220.267,286.323-68.544,53.371-144.069,92.677-223.126,124.8A1029.988,1029.988,0,0,1-16.985,851.743Z" transform="translate(0.016 0)" fill="#041248"/>
        <path id="Path_682" data-name="Path 682" d="M484.607-3.449h21.867c.168,6.588.252,13.176.5,19.764,2.019,60.773,2.607,121.472-3.869,182.024-5.214,49.3-15.054,97.267-34.819,142.5C422.455,445.651,357.527,534.627,272.331,606.282,186.882,677.936,91.256,726.348-16.985,744.558V709.619c2.523-.148,5.13-.148,7.654-.518,55.592-7.7,107.9-26.722,157.778-53.519,114.885-61.736,202.689-153.895,267.7-271.3,24.726-44.636,45.416-91.2,55.592-142.421C487.887,160.735,487.467,78.717,484.607-3.449Z" transform="translate(0.016 0)" fill="#041248"/>
        <path id="Path_683" data-name="Path 683" d="M-16.985,801.7V772.538c3.785-.666,7.569-1.036,11.354-1.925,195.288-46.857,348.44-157.966,455.083-339.323,23.3-39.529,43.566-80.834,56.1-125.914,14.634-52.927,20.858-107.26,21.531-162.111.5-48.929-1.262-97.859-2.018-146.714h20.858c3.953,76.022,6.56,152.044-1.262,228.066-4.878,47.893-13.625,94.9-32.3,139.09C468.712,467.266,405.634,555.5,324.138,628.563,255.678,690,177.883,734.12,94.368,767.357,58.119,781.791,21.114,793.709-16.985,801.7Z" transform="translate(0.016 0)" fill="#041248"/>
        <path id="Path_684" data-name="Path 684" d="M-16.985,676.974v-39.6c8.495-.592,17.157-.666,25.567-1.851C72.5,626.638,130.2,600.434,183.77,563.348c71.656-49.67,128.93-114.514,175.187-190.61,28.932-47.6,53.994-97.341,67.283-152.784,11.1-45.969,15.391-92.9,16.737-140.126.841-27.759.757-55.518,1.093-83.276h21.867c-.084,2.295-.252,4.589-.252,6.958.925,47.893,1.093,95.86-2.944,143.679-4.205,49.374-11.606,98.007-30.193,143.753C392.682,389.319,334.9,474,258.706,544.1c-60.05,55.221-127.5,96.378-204.2,119.326C31.122,670.46,7.405,675.716-16.985,676.974Z" transform="translate(0.016 0)" fill="#041248"/>
        <path id="Path_685" data-name="Path 685" d="M-16.985,600.064V556.982a33.484,33.484,0,0,1,3.785-.592c65.853-2.887,125.23-26.352,179.477-65.067,63.33-45.08,113.624-103.707,154.666-171.512,24.895-41.009,46.257-84.091,59.209-131.318,12.7-46.561,17.157-94.38,19.344-142.569.757-16.433,1.262-32.94,1.85-49.374h22.96c-.084,2.295-.336,4.589-.421,6.884-1.346,36.271-1.766,72.617-4.289,108.74-3.2,46.043-10.6,91.493-27.586,134.278C350.715,349.939,289.656,437.73,206.478,507.461,156.689,549.21,101.433,579.855,38.86,593.254,20.525,597.177,1.686,597.917-16.985,600.064Z" transform="translate(0.016 0)" fill="#041248"/>
        <path id="Path_686" data-name="Path 686" d="M35.483,343.826H6.972c-.168-3.7-.252-7.4-.5-11.029-2.439-35.457-3.953-70.988-1.6-106.52C7.729,182.9,16.9,141.668,39.94,104.73,71.479,54.32,113.867,21.6,170.721,12.053c33.221-5.626,66.442-3.109,98.906,5.108,32.8,8.365,65.1,18.8,97.644,28.351V86.3c-2.271-.444-4.626-.666-6.9-1.332C323.284,74.6,285.942,65.5,247.591,62.463c-35.071-2.739-69.553.666-101.513,17.025-53.237,27.167-86.29,72.543-101.092,133.02-8.747,35.975-9.84,72.839-9.5,109.851C35.567,329.465,35.483,336.645,35.483,343.826Z" transform="translate(1718.344 911.123)" fill="#041248"/>
        <path id="Path_687" data-name="Path 687" d="M355.341-3.449h24.138C378.3,19.424,377.712,42.3,375.946,65.1c-3.448,42.119-9.167,83.943-23.717,123.471-35.744,97.119-91.5,179.063-168.123,244.425C142.307,468.672,95.8,495.1,43.065,507.239c-19.68,4.589-40.033,6.07-60.05,8.957V468.45c5.13-.148,10.177-.074,15.307-.518,49.453-4.812,95.121-21.615,136.836-49.966C225.064,356.749,286.8,270.586,326.829,166.583,347.687,112.324,352.4,54.437,355.341-3.449Z" transform="translate(0.016 0)" fill="#041248"/>
        <path id="Path_688" data-name="Path 688" d="M-16.985,425.295V375.181a48.545,48.545,0,0,0,6.56-.148A270.4,270.4,0,0,0,86.8,345.053c45.668-24.28,83.935-58.4,116.483-99.71,49.789-63.29,85.869-133.908,97.98-216.667,1.6-10.733,3.2-21.393,4.794-32.126H332.38c0,.74.168,1.554.168,2.295-3.448,43.6-8.326,87.126-22.456,128.431C282.171,208.85,237.512,278.8,176.537,336.54,134.569,376.291,87.051,405.6,31.711,418.484,15.731,422.186-.753,423.148-16.985,425.295Z" transform="translate(0.016 0)" fill="#041248"/>
        <path id="Path_689" data-name="Path 689" d="M4.408,245.768c.252-38.048,3.364-75.8,15.643-111.775C34.265,92.317,59.58,59.525,95.324,36.578c27.081-17.4,56.938-24.724,88.224-25.982,39.192-1.555,77.459,5.182,115.642,13.4,2.859.592,5.719,1.036,8.579,1.555V68.63c-.673-.222-1.346-.592-2.018-.74-30.614-4.441-61.311-7.772-92.261-5.774-33.978,2.147-66.442,10.437-95.2,30.868-51.051,36.419-74.011,89.568-79.9,152.784Z" transform="translate(1777.846 1009.181)" fill="#041248"/>
        <path id="Path_690" data-name="Path 690" d="M-16.985,277.322c9.252-2.073,18.671-3.7,27.754-6.366,62.489-18.432,112.7-56.924,154.161-108.814C203.786,113.434,232.718,58.8,248.025-3.449h31.791c-7.906,56.48-28.175,107.852-56.6,155.819C187.723,212.181,142.9,261.777,84.192,296.05,52.568,314.408,18.927,325.881-16.985,329.8Z" transform="translate(0.016 0)" fill="#041248"/>
        <path id="Path_691" data-name="Path 691" d="M5.229,152.614c3.028-17.4,9.5-33.384,18.166-48.263C53.336,52.683,97.406,23.962,153.419,15.079c26.24-4.145,52.649-4,79.057-2.369,2.355.148,4.71.074,7.065.074V57.05a296.375,296.375,0,0,0-74.684,9.475c-36.585,9.327-67.451,29.017-92.6,58.552-7.065,8.365-12.616,18.284-18.839,27.537Z" transform="translate(1846.074 1102.335)" fill="#041248"/>
        <path id="Path_692" data-name="Path 692" d="M-12.831,42.758C-.3,39.724,12.232,36.392,24.931,33.8a1034.232,1034.232,0,0,1,240.2-20.06C318.62,15.518,371.69,22.7,424.506,31.729c18.923,3.257,37.846,6.366,56.77,9.623a45.387,45.387,0,0,1,5.214,1.406H343.01A40.742,40.742,0,0,0,337.8,41.5c-78.048-10.733-156.18-11.1-234.4-2.073-7.065.814-13.961,2.221-20.942,3.331Z" transform="translate(345.227 1212.19)" fill="#041248"/>
        <path id="Path_693" data-name="Path 693" d="M374.247-3.449C363.061-2.043,351.875-.34,340.605.7,259.446,8.469,178.118,8.839,96.79,4.027,66.765,2.251,36.74-.266,6.715-2.487,4.7-2.635,2.762-3.153.828-3.449Z" transform="translate(1480.336 0)" fill="#041248"/>
      </g>
    </g>
  </g>
</svg>
